  0
SECTION
  2
HEADER
  9
$ACADVER
  1
AC1009
  9
$FILLMODE
 70
 0
  9
$SPLFRAME
 70
 1
  9
$EXTMIN
 10
0
 20
0
 30
0.0
  9
$EXTMAX
 10
1058.33
 20
1058.33
 30
0.0
  0
ENDSEC
  0
SECTION
  2
TABLES
  0
TABLE
  2
LAYER
 70
1
  0
LAYER
  2
0
 70
     0
 62
     7
  6
CONTINUOUS
  0
ENDTAB
  0
ENDSEC
  0
SECTION
  2
ENTITIES
  0
LINE
  8
0
 62
     0
 10
0.0950846
 20
91.9798
 30
0.0
 11
131.115
 21
91.9798
 31
0.0
  0
LINE
  8
0
 62
     0
 10
131.115
 20
91.9798
 30
0.0
 11
131.115
 21
0.412034
 31
0.0
  0
LINE
  8
0
 62
     0
 10
131.115
 20
0.412034
 30
0.0
 11
0.0950846
 21
0.412034
 31
0.0
  0
LINE
  8
0
 62
     0
 10
0.0950846
 20
0.412034
 30
0.0
 11
0.0950846
 21
91.9798
 31
0.0
  0
LINE
  8
0
 62
     0
 10
108.54
 20
10.8631
 30
0.0
 11
120.664
 21
3.86263
 31
0.0
  0
LINE
  8
0
 62
     0
 10
120.664
 20
3.86263
 30
0.0
 11
127.663
 21
15.9866
 31
0.0
  0
LINE
  8
0
 62
     0
 10
127.663
 20
15.9866
 30
0.0
 11
115.539
 21
22.9871
 31
0.0
  0
LINE
  8
0
 62
     0
 10
115.539
 20
22.9871
 30
0.0
 11
108.54
 21
10.8631
 31
0.0
  0
LINE
  8
0
 62
     0
 10
88.9109
 20
15.6614
 30
0.0
 11
102.435
 21
12.0372
 31
0.0
  0
LINE
  8
0
 62
     0
 10
102.435
 20
12.0372
 30
0.0
 11
106.058
 21
25.5598
 31
0.0
  0
LINE
  8
0
 62
     0
 10
106.058
 20
25.5598
 30
0.0
 11
92.534
 21
29.1841
 31
0.0
  0
LINE
  8
0
 62
     0
 10
92.534
 20
29.1841
 30
0.0
 11
88.9109
 21
15.6614
 31
0.0
  0
LINE
  8
0
 62
     0
 10
69.2947
 20
30.4009
 30
0.0
 11
83.294
 21
30.4009
 31
0.0
  0
LINE
  8
0
 62
     0
 10
83.294
 20
30.4009
 30
0.0
 11
83.294
 21
16.4
 31
0.0
  0
LINE
  8
0
 62
     0
 10
83.294
 20
16.4
 30
0.0
 11
69.2947
 21
16.4
 31
0.0
  0
LINE
  8
0
 62
     0
 10
69.2947
 20
16.4
 30
0.0
 11
69.2947
 21
30.4009
 31
0.0
  0
LINE
  8
0
 62
     0
 10
2.61965
 20
45.6406
 30
0.0
 11
16.6192
 21
45.6406
 31
0.0
  0
LINE
  8
0
 62
     0
 10
16.6192
 20
45.6406
 30
0.0
 11
16.6192
 21
31.6411
 31
0.0
  0
LINE
  8
0
 62
     0
 10
16.6192
 20
31.6411
 30
0.0
 11
2.61965
 21
31.6411
 31
0.0
  0
LINE
  8
0
 62
     0
 10
2.61965
 20
31.6411
 30
0.0
 11
2.61965
 21
45.6406
 31
0.0
  0
LINE
  8
0
 62
     0
 10
21.6697
 20
45.6406
 30
0.0
 11
35.669
 21
45.6406
 31
0.0
  0
LINE
  8
0
 62
     0
 10
35.669
 20
45.6406
 30
0.0
 11
35.669
 21
31.6411
 31
0.0
  0
LINE
  8
0
 62
     0
 10
35.669
 20
31.6411
 30
0.0
 11
21.6697
 21
31.6411
 31
0.0
  0
LINE
  8
0
 62
     0
 10
21.6697
 20
31.6411
 30
0.0
 11
21.6697
 21
45.6406
 31
0.0
  0
LINE
  8
0
 62
     0
 10
97.8697
 20
47.5449
 30
0.0
 11
111.869
 21
47.5449
 31
0.0
  0
LINE
  8
0
 62
     0
 10
111.869
 20
47.5449
 30
0.0
 11
111.869
 21
33.5456
 31
0.0
  0
LINE
  8
0
 62
     0
 10
111.869
 20
33.5456
 30
0.0
 11
97.8697
 21
33.5456
 31
0.0
  0
LINE
  8
0
 62
     0
 10
97.8697
 20
33.5456
 30
0.0
 11
97.8697
 21
47.5449
 31
0.0
  0
LINE
  8
0
 62
     0
 10
40.7197
 20
49.451
 30
0.0
 11
54.719
 21
49.451
 31
0.0
  0
LINE
  8
0
 62
     0
 10
54.719
 20
49.451
 30
0.0
 11
54.719
 21
35.4499
 31
0.0
  0
LINE
  8
0
 62
     0
 10
54.719
 20
35.4499
 30
0.0
 11
40.7197
 21
35.4499
 31
0.0
  0
LINE
  8
0
 62
     0
 10
40.7197
 20
35.4499
 30
0.0
 11
40.7197
 21
49.451
 31
0.0
  0
LINE
  8
0
 62
     0
 10
78.8197
 20
49.451
 30
0.0
 11
92.819
 21
49.451
 31
0.0
  0
LINE
  8
0
 62
     0
 10
92.819
 20
49.451
 30
0.0
 11
92.819
 21
35.4499
 31
0.0
  0
LINE
  8
0
 62
     0
 10
92.819
 20
35.4499
 30
0.0
 11
78.8197
 21
35.4499
 31
0.0
  0
LINE
  8
0
 62
     0
 10
78.8197
 20
35.4499
 30
0.0
 11
78.8197
 21
49.451
 31
0.0
  0
LINE
  8
0
 62
     0
 10
59.7697
 20
51.3553
 30
0.0
 11
73.769
 21
51.3553
 31
0.0
  0
LINE
  8
0
 62
     0
 10
73.769
 20
51.3553
 30
0.0
 11
73.769
 21
37.356
 31
0.0
  0
LINE
  8
0
 62
     0
 10
73.769
 20
37.356
 30
0.0
 11
59.7697
 21
37.356
 31
0.0
  0
LINE
  8
0
 62
     0
 10
59.7697
 20
37.356
 30
0.0
 11
59.7697
 21
51.3553
 31
0.0
  0
LINE
  8
0
 62
     0
 10
2.61965
 20
64.6906
 30
0.0
 11
16.6192
 21
64.6906
 31
0.0
  0
LINE
  8
0
 62
     0
 10
16.6192
 20
64.6906
 30
0.0
 11
16.6192
 21
50.691
 31
0.0
  0
LINE
  8
0
 62
     0
 10
16.6192
 20
50.691
 30
0.0
 11
2.61965
 21
50.691
 31
0.0
  0
LINE
  8
0
 62
     0
 10
2.61965
 20
50.691
 30
0.0
 11
2.61965
 21
64.6906
 31
0.0
  0
LINE
  8
0
 62
     0
 10
21.6697
 20
64.6906
 30
0.0
 11
35.669
 21
64.6906
 31
0.0
  0
LINE
  8
0
 62
     0
 10
35.669
 20
64.6906
 30
0.0
 11
35.669
 21
50.691
 31
0.0
  0
LINE
  8
0
 62
     0
 10
35.669
 20
50.691
 30
0.0
 11
21.6697
 21
50.691
 31
0.0
  0
LINE
  8
0
 62
     0
 10
21.6697
 20
50.691
 30
0.0
 11
21.6697
 21
64.6906
 31
0.0
  0
LINE
  8
0
 62
     0
 10
97.8697
 20
66.5949
 30
0.0
 11
111.869
 21
66.5949
 31
0.0
  0
LINE
  8
0
 62
     0
 10
111.869
 20
66.5949
 30
0.0
 11
111.869
 21
52.5956
 31
0.0
  0
LINE
  8
0
 62
     0
 10
111.869
 20
52.5956
 30
0.0
 11
97.8697
 21
52.5956
 31
0.0
  0
LINE
  8
0
 62
     0
 10
97.8697
 20
52.5956
 30
0.0
 11
97.8697
 21
66.5949
 31
0.0
  0
LINE
  8
0
 62
     0
 10
40.7197
 20
68.501
 30
0.0
 11
54.719
 21
68.501
 31
0.0
  0
LINE
  8
0
 62
     0
 10
54.719
 20
68.501
 30
0.0
 11
54.719
 21
54.4999
 31
0.0
  0
LINE
  8
0
 62
     0
 10
54.719
 20
54.4999
 30
0.0
 11
40.7197
 21
54.4999
 31
0.0
  0
LINE
  8
0
 62
     0
 10
40.7197
 20
54.4999
 30
0.0
 11
40.7197
 21
68.501
 31
0.0
  0
LINE
  8
0
 62
     0
 10
78.8197
 20
68.501
 30
0.0
 11
92.819
 21
68.501
 31
0.0
  0
LINE
  8
0
 62
     0
 10
92.819
 20
68.501
 30
0.0
 11
92.819
 21
54.4999
 31
0.0
  0
LINE
  8
0
 62
     0
 10
92.819
 20
54.4999
 30
0.0
 11
78.8197
 21
54.4999
 31
0.0
  0
LINE
  8
0
 62
     0
 10
78.8197
 20
54.4999
 30
0.0
 11
78.8197
 21
68.501
 31
0.0
  0
LINE
  8
0
 62
     0
 10
59.7697
 20
70.4053
 30
0.0
 11
73.769
 21
70.4053
 31
0.0
  0
LINE
  8
0
 62
     0
 10
73.769
 20
70.4053
 30
0.0
 11
73.769
 21
56.406
 31
0.0
  0
LINE
  8
0
 62
     0
 10
73.769
 20
56.406
 30
0.0
 11
59.7697
 21
56.406
 31
0.0
  0
LINE
  8
0
 62
     0
 10
59.7697
 20
56.406
 30
0.0
 11
59.7697
 21
70.4053
 31
0.0
  0
LINE
  8
0
 62
     0
 10
2.61965
 20
83.7406
 30
0.0
 11
16.6192
 21
83.7406
 31
0.0
  0
LINE
  8
0
 62
     0
 10
16.6192
 20
83.7406
 30
0.0
 11
16.6192
 21
69.741
 31
0.0
  0
LINE
  8
0
 62
     0
 10
16.6192
 20
69.741
 30
0.0
 11
2.61965
 21
69.741
 31
0.0
  0
LINE
  8
0
 62
     0
 10
2.61965
 20
69.741
 30
0.0
 11
2.61965
 21
83.7406
 31
0.0
  0
LINE
  8
0
 62
     0
 10
21.6697
 20
83.7406
 30
0.0
 11
35.669
 21
83.7406
 31
0.0
  0
LINE
  8
0
 62
     0
 10
35.669
 20
83.7406
 30
0.0
 11
35.669
 21
69.741
 31
0.0
  0
LINE
  8
0
 62
     0
 10
35.669
 20
69.741
 30
0.0
 11
21.6697
 21
69.741
 31
0.0
  0
LINE
  8
0
 62
     0
 10
21.6697
 20
69.741
 30
0.0
 11
21.6697
 21
83.7406
 31
0.0
  0
LINE
  8
0
 62
     0
 10
97.8697
 20
85.6449
 30
0.0
 11
111.869
 21
85.6449
 31
0.0
  0
LINE
  8
0
 62
     0
 10
111.869
 20
85.6449
 30
0.0
 11
111.869
 21
71.6456
 31
0.0
  0
LINE
  8
0
 62
     0
 10
111.869
 20
71.6456
 30
0.0
 11
97.8697
 21
71.6456
 31
0.0
  0
LINE
  8
0
 62
     0
 10
97.8697
 20
71.6456
 30
0.0
 11
97.8697
 21
85.6449
 31
0.0
  0
LINE
  8
0
 62
     0
 10
40.7197
 20
87.551
 30
0.0
 11
54.719
 21
87.551
 31
0.0
  0
LINE
  8
0
 62
     0
 10
54.719
 20
87.551
 30
0.0
 11
54.719
 21
73.5499
 31
0.0
  0
LINE
  8
0
 62
     0
 10
54.719
 20
73.5499
 30
0.0
 11
40.7197
 21
73.5499
 31
0.0
  0
LINE
  8
0
 62
     0
 10
40.7197
 20
73.5499
 30
0.0
 11
40.7197
 21
87.551
 31
0.0
  0
LINE
  8
0
 62
     0
 10
78.8197
 20
87.551
 30
0.0
 11
92.819
 21
87.551
 31
0.0
  0
LINE
  8
0
 62
     0
 10
92.819
 20
87.551
 30
0.0
 11
92.819
 21
73.5499
 31
0.0
  0
LINE
  8
0
 62
     0
 10
92.819
 20
73.5499
 30
0.0
 11
78.8197
 21
73.5499
 31
0.0
  0
LINE
  8
0
 62
     0
 10
78.8197
 20
73.5499
 30
0.0
 11
78.8197
 21
87.551
 31
0.0
  0
LINE
  8
0
 62
     0
 10
59.7697
 20
89.4553
 30
0.0
 11
73.769
 21
89.4553
 31
0.0
  0
LINE
  8
0
 62
     0
 10
73.769
 20
89.4553
 30
0.0
 11
73.769
 21
75.456
 31
0.0
  0
LINE
  8
0
 62
     0
 10
73.769
 20
75.456
 30
0.0
 11
59.7697
 21
75.456
 31
0.0
  0
LINE
  8
0
 62
     0
 10
59.7697
 20
75.456
 30
0.0
 11
59.7697
 21
89.4553
 31
0.0
  0
ENDSEC
  0
EOF
