<?xml version="1.0"?>
<!-- Generated by SVGo -->
<svg width="141.021mm" height="101.570mm"
     viewBox="0.000 0.000 141.021 101.570"
     xmlns="http://www.w3.org/2000/svg" 
     xmlns:xlink="http://www.w3.org/1999/xlink">
<polygon points="136.021,96.569 5.001,96.569 5.001,5.001 136.021,5.001" style="fill:none;stroke-width:0.050000mm;stroke:black"/>
<polygon points="113.446,86.119 125.570,93.119 132.570,80.995 120.446,73.995" style="fill:none;stroke-width:0.050000mm;stroke:black"/>
<polygon points="93.818,81.320 107.341,84.944 110.964,71.421 97.441,67.797" style="fill:none;stroke-width:0.050000mm;stroke:black"/>
<polygon points="74.201,66.581 74.201,80.581 88.201,80.581 88.201,66.581" style="fill:none;stroke-width:0.050000mm;stroke:black"/>
<polygon points="7.526,51.341 7.526,65.341 21.526,65.341 21.526,51.341" style="fill:none;stroke-width:0.050000mm;stroke:black"/>
<polygon points="26.576,51.341 26.576,65.341 40.576,65.341 40.576,51.341" style="fill:none;stroke-width:0.050000mm;stroke:black"/>
<polygon points="102.776,49.436 102.776,63.436 116.776,63.436 116.776,49.436" style="fill:none;stroke-width:0.050000mm;stroke:black"/>
<polygon points="45.626,47.531 45.626,61.531 59.626,61.531 59.626,47.531" style="fill:none;stroke-width:0.050000mm;stroke:black"/>
<polygon points="83.726,47.531 83.726,61.531 97.726,61.531 97.726,47.531" style="fill:none;stroke-width:0.050000mm;stroke:black"/>
<polygon points="64.676,45.626 64.676,59.626 78.676,59.626 78.676,45.626" style="fill:none;stroke-width:0.050000mm;stroke:black"/>
<polygon points="7.526,32.291 7.526,46.291 21.526,46.291 21.526,32.291" style="fill:none;stroke-width:0.050000mm;stroke:black"/>
<polygon points="26.576,32.291 26.576,46.291 40.576,46.291 40.576,32.291" style="fill:none;stroke-width:0.050000mm;stroke:black"/>
<polygon points="102.776,30.386 102.776,44.386 116.776,44.386 116.776,30.386" style="fill:none;stroke-width:0.050000mm;stroke:black"/>
<polygon points="45.626,28.481 45.626,42.481 59.626,42.481 59.626,28.481" style="fill:none;stroke-width:0.050000mm;stroke:black"/>
<polygon points="83.726,28.481 83.726,42.481 97.726,42.481 97.726,28.481" style="fill:none;stroke-width:0.050000mm;stroke:black"/>
<polygon points="64.676,26.576 64.676,40.576 78.676,40.576 78.676,26.576" style="fill:none;stroke-width:0.050000mm;stroke:black"/>
<polygon points="7.526,13.241 7.526,27.241 21.526,27.241 21.526,13.241" style="fill:none;stroke-width:0.050000mm;stroke:black"/>
<polygon points="26.576,13.241 26.576,27.241 40.576,27.241 40.576,13.241" style="fill:none;stroke-width:0.050000mm;stroke:black"/>
<polygon points="102.776,11.336 102.776,25.336 116.776,25.336 116.776,11.336" style="fill:none;stroke-width:0.050000mm;stroke:black"/>
<polygon points="45.626,9.431 45.626,23.431 59.626,23.431 59.626,9.431" style="fill:none;stroke-width:0.050000mm;stroke:black"/>
<polygon points="83.726,9.431 83.726,23.431 97.726,23.431 97.726,9.431" style="fill:none;stroke-width:0.050000mm;stroke:black"/>
<polygon points="64.676,7.526 64.676,21.526 78.676,21.526 78.676,7.526" style="fill:none;stroke-width:0.050000mm;stroke:black"/>
</svg>
